<svg width="16" height="28" viewBox="0 0 16 28" fill="none" xmlns="http://www.w3.org/2000/svg">
<circle cx="8" cy="7" r="7" fill="#EC1C24"/>
<path d="M5.6665 9.66675L10.6665 4.66675M5.6665 4.66675L10.6665 9.66675" stroke="white" stroke-width="2" stroke-linecap="round" stroke-linejoin="round"/>
<path d="M0 18.6296C0 18.0773 0.447715 17.6296 1 17.6296H5.9454C6.36219 17.6296 6.73528 17.3711 6.88168 16.9809L7.06372 16.4957C7.38823 15.6307 8.61177 15.6307 8.93628 16.4957L9.11832 16.9809C9.26472 17.3711 9.6378 17.6296 10.0546 17.6296H15C15.5523 17.6296 16 18.0773 16 18.6296V27C16 27.5523 15.5523 28 15 28H1C0.447715 28 0 27.5523 0 27V18.6296Z" fill="black" fill-opacity="0.5"/>
<path d="M11.5527 20.0959H12.1767V25.7759H11.5527V20.0959Z" fill="white"/>
<path d="M9.59961 20.0959H10.2236V20.8959H9.59961V20.0959ZM9.59961 21.6959H10.2236V25.7759H9.59961V21.6959Z" fill="white"/>
<path d="M6.4 25.872C4.856 25.872 4.096 25.048 4 23.952H4.696C4.808 24.872 5.4 25.264 6.424 25.264C7.224 25.264 7.792 24.92 7.792 24.216C7.792 23.432 7.104 23.336 6.08 23.04C5.08 22.752 4.2 22.536 4.2 21.488C4.2 20.6 5.04 20 6.168 20C7.504 20 8.24 20.672 8.4 21.648H7.728C7.608 20.92 7.016 20.608 6.168 20.608C5.424 20.608 4.896 20.928 4.896 21.472C4.896 22.08 5.52 22.24 6.376 22.472C7.48 22.776 8.488 23.016 8.488 24.216C8.488 25.248 7.616 25.872 6.4 25.872Z" fill="white"/>
</svg>
