<svg width="32" height="33" viewBox="0 0 32 33" fill="none" xmlns="http://www.w3.org/2000/svg">
<g id="System/Cloud Upload">
<path id="Vector" fill-rule="evenodd" clip-rule="evenodd" d="M17.9089 8.54509C17.1013 8.39825 16.2685 8.396 15.4597 8.53852C14.651 8.68103 13.8874 8.96457 13.2119 9.36815C11.847 10.1836 10.9401 11.4265 10.6336 12.792C10.4969 13.4007 9.95649 13.8333 9.33262 13.8333C8.00396 13.8333 6.741 14.3387 5.81877 15.2208C4.89855 16.101 4.39323 17.2819 4.39323 18.4999C4.39323 19.718 4.89855 20.8988 5.81877 21.7791C6.741 22.6612 8.00396 23.1666 9.33262 23.1666C10.069 23.1666 10.666 23.7636 10.666 24.4999C10.666 25.2363 10.069 25.8333 9.33262 25.8333C7.33402 25.8333 5.406 25.0744 3.9755 23.7061C2.54299 22.3359 1.72656 20.4645 1.72656 18.4999C1.72656 16.5354 2.54299 14.664 3.9755 13.2938C5.16277 12.1581 6.69274 11.4423 8.32134 11.2317C8.95878 9.51663 10.2058 8.05785 11.8442 7.07896C12.8058 6.50443 13.8773 6.10963 14.9969 5.91232C16.1165 5.71501 17.2676 5.7181 18.386 5.92144C19.5044 6.12479 20.5734 6.5254 21.5314 7.10524C22.4896 7.68518 23.3209 8.43498 23.972 9.31769C24.6234 10.2008 25.0809 11.1988 25.3109 12.2559C25.4243 12.7772 25.4809 13.3062 25.4808 13.8351C27.0184 13.873 28.485 14.5004 29.5753 15.5906C30.7005 16.7158 31.3326 18.242 31.3326 19.8333C31.3326 21.4246 30.7005 22.9507 29.5753 24.0759C28.45 25.2011 26.9239 25.8333 25.3326 25.8333H23.9993C23.2629 25.8333 22.666 25.2363 22.666 24.4999C22.666 23.7636 23.2629 23.1666 23.9993 23.1666H25.3326C26.2167 23.1666 27.0645 22.8154 27.6896 22.1903C28.3148 21.5652 28.666 20.7173 28.666 19.8333C28.666 18.9492 28.3148 18.1014 27.6896 17.4762C27.0645 16.8511 26.2167 16.4999 25.3326 16.4999H23.9993C23.5944 16.4999 23.2114 16.3159 22.9583 15.9998C22.7053 15.6837 22.6096 15.2697 22.6983 14.8746C22.8504 14.1972 22.8527 13.5009 22.7052 12.8229C22.5576 12.1445 22.2613 11.4909 21.826 10.9007C21.3903 10.31 20.823 9.79353 20.1506 9.38658C19.4781 8.97952 18.7166 8.69194 17.9089 8.54509ZM15.0565 15.5572C15.5772 15.0365 16.4215 15.0365 16.9422 15.5572L20.9422 19.5572C21.4629 20.0779 21.4629 20.9221 20.9422 21.4428C20.4215 21.9635 19.5772 21.9635 19.0565 21.4428L17.3327 19.719V28.5C17.3327 29.2364 16.7357 29.8333 15.9993 29.8333C15.263 29.8333 14.666 29.2364 14.666 28.5V19.719L12.9422 21.4428C12.4215 21.9635 11.5772 21.9635 11.0565 21.4428C10.5358 20.9221 10.5358 20.0779 11.0565 19.5572L15.0565 15.5572Z" fill="#D5D5D5"/>
</g>
</svg>
