<svg width="42" height="43" viewBox="0 0 42 43" fill="none" xmlns="http://www.w3.org/2000/svg">
<g id="Group">
<path id="Vector" d="M34 40.4998V28.4998M34 28.4998L40 34.4998M34 28.4998L28 34.4998" stroke="#FF585A" stroke-width="4" stroke-linecap="round" stroke-linejoin="round"/>
<g id="Group 32">
<g id="Group_2">
<path id="Vector_2" d="M29.89 19.6126L16.2227 12.7768C15.8363 12.5835 15.4069 12.4922 14.9753 12.5116C14.5437 12.531 14.1242 12.6604 13.7567 12.8876C13.3892 13.1149 13.086 13.4323 12.8758 13.8097C12.6655 14.1872 12.5554 14.6121 12.5557 15.0442V27.9557C12.5554 28.3878 12.6655 28.8127 12.8758 29.1902C13.086 29.5676 13.3892 29.8851 13.7567 30.1123C14.1242 30.3395 14.5437 30.4689 14.9753 30.4883C15.4069 30.5077 15.8363 30.4164 16.2227 30.2231L29.89 23.3873C30.2402 23.2118 30.5346 22.9423 30.7404 22.609C30.9462 22.2757 31.0552 21.8917 31.0552 21.5C31.0552 21.1082 30.9462 20.7243 30.7404 20.3909C30.5346 20.0576 30.2402 19.7881 29.89 19.6126Z" stroke="#FF585A" stroke-width="4" stroke-linecap="round" stroke-linejoin="round"/>
<path id="Vector_3" d="M21 40.5C20.6146 25.0225 32.6146 21.487 40 21.5C40 11.0066 31.4934 2.5 21 2.5C10.5066 2.5 2 11.0066 2 21.5C2 31.9934 10.5066 40.5 21 40.5Z" stroke="#FF585A" stroke-width="4"/>
</g>
</g>
</g>
</svg>
