<svg xmlns:xlink="http://www.w3.org/1999/xlink" xmlns="http://www.w3.org/2000/svg" width="890.5" height="196.13029495559596" viewBox="0 0 370.2580645161291 81.54836990818245" class="looka-1j8o68f"><defs id="SvgjsDefs1011"></defs><g id="SvgjsG1012" featurekey="symbolFeature-0" transform="matrix(0.8602146370703077,0,0,0.8602146370703077,-9.135491652712004,-2.0301091194307888)" fill="#506084"><path xmlns="http://www.w3.org/2000/svg" d="M39.99,44.72c0.49,0.16,1.03,0.24,1.61,0.24c2.44,0,5.22-1.46,6.61-3.48c0.72-1.05,1-2.17,0.83-3.25h1.92  c-0.17,1.07,0.11,2.2,0.83,3.25c1.39,2.02,4.17,3.48,6.61,3.48h0c0.57,0,1.12-0.08,1.61-0.24c1.7-0.56,3.07-2.1,3.56-4.01  c0.46-1.8,0.08-3.58-1.02-4.76c-1.47-1.58-3.24-1.71-4.79-1.71c-0.26,0-0.53,0-0.8,0.01c-0.27,0-0.54,0.01-0.82,0.01  c-1.95,0-3.65,0.92-4.57,2.38h-3.13c-0.91-1.47-2.62-2.38-4.57-2.38c-0.28,0-0.55,0-0.82-0.01c-0.27,0-0.54-0.01-0.8-0.01  c-1.55,0-3.32,0.13-4.79,1.71c-1.1,1.18-1.48,2.96-1.02,4.76C36.93,42.62,38.29,44.16,39.99,44.72z M56.13,35.85  c0.29,0,0.57,0,0.85-0.01c0.26,0,0.52-0.01,0.77-0.01c1.63,0,2.69,0.19,3.63,1.2c0.73,0.78,0.97,2.01,0.64,3.28  c-0.36,1.39-1.32,2.5-2.52,2.9c-0.33,0.11-0.7,0.16-1.11,0.16h0c-1.9,0-4.23-1.23-5.3-2.79c-0.42-0.61-0.84-1.56-0.45-2.58  C53.15,36.7,54.52,35.85,56.13,35.85z M38.61,37.04c0.94-1.01,2-1.2,3.63-1.2c0.25,0,0.51,0,0.77,0.01c0.28,0,0.56,0.01,0.85,0.01  c1.62,0,2.99,0.84,3.49,2.15c0.39,1.03-0.03,1.97-0.45,2.58c-1.08,1.57-3.41,2.79-5.3,2.79c-0.41,0-0.78-0.06-1.11-0.16  c-1.2-0.39-2.16-1.5-2.52-2.9C37.64,39.05,37.88,37.82,38.61,37.04z M75.8,62.1c-3.83-1.65-6.84-2.87-9.45-3.82l-1.63-2.98  c1.79-2.57,2.96-5.5,2.96-8.55v-1.87c2.36-1.4,4.13-5.35,4.13-9.37c0-2.46-0.7-4.49-1.88-5.59h1.41c1.44,0,2.62-1.18,2.62-2.62  c0-1.35-1.03-2.47-2.34-2.61c-0.7-8.51-6.44-15.91-14.55-18.73c-0.39-2.06-2.2-3.6-4.36-3.6h-5.42c-2.16,0-3.97,1.54-4.36,3.6  c-8.11,2.82-13.85,10.21-14.55,18.73c-1.32,0.14-2.34,1.26-2.34,2.61c0,1.45,1.18,2.62,2.62,2.62h1.43  c-1.19,1.1-1.88,3.13-1.88,5.59c0,4.02,1.78,7.97,4.13,9.37v1.87c0,3.05,1.16,5.99,2.96,8.55l-1.65,3c-2.68,0.97-5.68,2.18-9.44,3.8  c-8.38,3.62-13.59,11.53-13.59,20.66v13.53c0,0.48,0.39,0.86,0.86,0.86s0.86-0.39,0.86-0.86V82.76c0-8.43,4.81-15.74,12.54-19.07  c3.37-1.45,6.14-2.58,8.59-3.49l1.23,18.26c0.02,0.31,0.21,0.59,0.5,0.73c0.12,0.05,0.24,0.08,0.36,0.08c0.18,0,0.36-0.06,0.51-0.17  l10.35-7.67l0.83,3.4l-3.21,21.34c-0.07,0.47,0.25,0.91,0.72,0.98c0.47,0.07,0.91-0.25,0.98-0.72l3.13-20.77h2.25l3.13,20.77  c0.06,0.43,0.43,0.73,0.85,0.73c0.04,0,0.09,0,0.13-0.01c0.47-0.07,0.8-0.51,0.72-0.98l-3.21-21.34l0.83-3.4l10.35,7.67  c0.15,0.11,0.33,0.17,0.51,0.17c0.12,0,0.25-0.03,0.36-0.08c0.29-0.13,0.48-0.41,0.5-0.73l1.23-18.27c2.4,0.9,5.17,2.03,8.59,3.5  c7.74,3.34,12.54,10.65,12.54,19.07v13.53c0,0.48,0.39,0.86,0.86,0.86s0.86-0.39,0.86-0.86V82.76C89.38,73.63,84.18,65.71,75.8,62.1  z M27.75,27.29c0-0.49,0.4-0.9,0.9-0.9h0.53c0.46,0,0.84-0.36,0.86-0.82c0.35-7.92,5.45-14.9,12.81-17.74v14.4  c0,0.48,0.39,0.86,0.86,0.86c0.48,0,0.86-0.39,0.86-0.86V6.61c0,0,0,0,0-0.01c0.1-1.41,1.28-2.52,2.7-2.52h5.42  c1.44,0,2.63,1.13,2.71,2.57c0,0.01,0.01,0.02,0.01,0.03v15.55c0,0.48,0.39,0.86,0.86,0.86c0.48,0,0.86-0.39,0.86-0.86V7.84  c7.35,2.84,12.44,9.82,12.79,17.73c0.02,0.46,0.4,0.82,0.86,0.82h0.53c0.49,0,0.9,0.4,0.9,0.9c0,0.49-0.4,0.9-0.9,0.9H28.65  C28.16,28.19,27.75,27.79,27.75,27.29z M33.52,43.55c-1.95-0.81-3.6-4.5-3.6-8.05c0-2.56,0.8-4.01,1.55-4.51  c0.27-0.18,0.55-0.24,0.86-0.22l0,7.97c0,0.48,0.39,0.86,0.86,0.86c0.48,0,0.86-0.39,0.86-0.86V30.1c0,0,0,0,0,0v-0.09l0-0.09h31.89  l0,8.83c0,0.48,0.39,0.86,0.86,0.86c0.48,0,0.86-0.39,0.86-0.86v-7.97c0.3-0.02,0.59,0.04,0.86,0.22c0.75,0.5,1.55,1.95,1.55,4.51  c0,3.55-1.65,7.24-3.6,8.05c-0.32,0.13-0.53,0.45-0.53,0.8v2.4c0,8.73-10.56,15.95-15.95,15.95c-5.39,0-15.95-7.22-15.95-15.95v-2.4  C34.05,44,33.84,43.69,33.52,43.55z M52.55,69.1h-5.1l-3.89-6.55c2.26,1.19,4.53,1.87,6.44,1.87c1.91,0,4.18-0.68,6.44-1.87  L52.55,69.1z M36.32,76.76l-1.18-17.6l1.3-2.37c1.16,1.38,2.48,2.62,3.89,3.68l5.5,9.25L36.32,76.76z M48.81,73.92l-0.75-3.1h3.89  l-0.75,3.1H48.81z M63.68,76.76l-9.5-7.04l5.5-9.25c1.4-1.06,2.73-2.31,3.89-3.68l1.3,2.37L63.68,76.76z M64.75,25.53  c0,0.48-0.39,0.86-0.86,0.86H36.18c-0.48,0-0.86-0.39-0.86-0.86c0-0.48,0.39-0.86,0.86-0.86h27.71  C64.37,24.67,64.75,25.06,64.75,25.53z" fill="#506084"></path></g><g id="SvgjsG1013" featurekey="nameFeature-0" transform="matrix(1.2866518175774357,0,0,1.2866518175774357,85.91343392424541,8.23735359999542)" fill="#9A39D7"><path d="M27.891 30.664099999999998 c-1.0742 4.4141 -4.7852 7.6172 -9.1016 8.8477 c-1.3672 0.35156 -3.0664 0.48828 -5.1367 0.48828 l-12.031 0 l2.9297 -12.734 l-2.2266 0 l3.8086 -16.406 c3.3789 0 13.633 -0.64453 17.09 0.625 c2.9297 1.1523 4.3164 3.5742 3.5938 6.7383 c-0.54688 2.3633 -1.9727 4.1992 -3.8867 5.625 c1.6016 0.80078 2.5391 2.0117 2.8516 3.418 l2.1484 0 c0.25391 1.0938 0.19531 2.1484 -0.039063 3.3984 z M17.891 30.5469 c0.625 -2.7148 -2.0508 -2.1875 -3.8086 -2.1875 l-1.0547 4.5117 c2.168 0 4.2969 0.25391 4.8633 -2.3242 z M16.719 20 c0.44922 -1.8164 -1.0547 -2.0313 -2.4805 -2.0313 l-0.74219 3.5352 c1.0938 0.097656 2.9297 -0.058594 3.2227 -1.5039 z M56.6995 26.719 l-0.50781 2.4414 c-1.7773 7.8125 -7.4219 11.445 -15.215 11.445 c-7.8516 0 -11.777 -3.75 -10.039 -11.426 l0.56641 -2.4609 l-1.7578 0 l3.6133 -15.957 l9.9023 0 l-3.6328 15.957 l1.7578 0 l-0.50781 2.0508 c-0.39063 1.7383 -0.83984 4.4727 1.7773 4.4727 c2.4219 0 3.3008 -2.4805 3.7695 -4.4727 l0.46875 -2.0508 l-1.8164 0 l3.6328 -15.957 l9.9023 0 l-3.6328 15.957 l1.7188 0 z M70.62521875 27.344 l-2.9297 12.734 l-9.8828 0 l2.9297 -12.734 l-1.9922 0 l3.8281 -16.484 l9.8633 0 l-3.7891 16.484 l1.9727 0 z M74.04295625 27.266 l-1.7969 0 l3.75 -16.367 l9.8047 0 l-3.7891 16.367 l1.8164 0 l-1.2891 5.332 l10.84 0 l-1.6797 7.3828 l-20.605 0 z M120.429625 27.266 l2.1875 0 c-2.1289 6.2891 -7.5586 11.23 -14.16 12.383 c-4.8633 0.68359 -10.352 0.35156 -15.293 0.35156 l2.9297 -12.734 l-2.168 0 l3.7695 -16.406 c3.9063 0 13.789 -0.60547 17.695 1.0547 c5.4102 2.3242 6.7578 8.2422 5.5078 13.516 c-0.097656 0.625 -0.25391 1.25 -0.46875 1.8359 z M105.898625 18.066 l-2.1094 9.1992 l2.168 0 l-1.2695 5.4688 c4.2383 0 6.6016 -1.6016 7.9102 -5.4688 l-2.168 0 c0.21484 -0.52734 0.37109 -1.1523 0.54688 -1.8945 c1.2109 -5.0586 -0.27344 -7.3047 -5.0781 -7.3047 z M125.5468625 27.266 l-1.7969 0 l3.75 -16.367 l9.8047 0 l-3.7891 16.367 l1.8164 0 l-1.2891 5.332 l10.84 0 l-1.6797 7.3828 l-20.605 0 z M157.69553125 27.344 l-2.9297 12.734 l-9.8828 0 l2.9297 -12.734 l-1.9922 0 l3.8281 -16.484 l9.8633 0 l-3.7891 16.484 l1.9727 0 z M188.28146875 27.266 l-2.9102 12.715 l-9.082 0 l-3.8672 -12.715 l-0.44922 0 l-2.9492 12.715 l-9.1992 0 l2.9492 -12.715 l-1.7773 0 l3.7695 -16.367 l10.723 0 l3.1641 10.273 l2.4023 -10.273 l9.2383 0 l-3.7891 16.367 l1.7773 0 z M210.8786875 27.344 l5.6641 12.734 l-11.582 0 l-3.6719 -8.8086 l-2.0313 8.8086 l-9.8047 0 l2.9297 -12.734 l-1.9727 0 l3.7695 -16.484 l9.8242 0 l-1.8945 8.2031 c2.5586 -2.7344 5.0586 -5.5078 7.5977 -8.2031 l11.289 0 l-13.32 13.672 l1.1914 2.8125 l2.0117 0 z" fill="#9A39D7"></path></g></svg>